<svg width="544" height="527" viewBox="0 0 544 527" fill="none" xmlns="http://www.w3.org/2000/svg">
<g clip-path="url(#clip0_114_477)">
<path d="M45.8101 194.88H126.49V176.08H66.7001V64.59H109V87.83H128.58V45.27H45.8101V194.88Z" fill="black"/>
<path d="M258.61 64.33H290.98V194.88H310.83V64.33H341.64V45.27H258.61V64.33Z" fill="black"/>
<path d="M415.23 173.47H407.66L388.86 45.27H363.8L390.43 194.88H433.25L460.14 45.27H433.77L415.23 173.47Z" fill="black"/>
<path d="M231.47 128.18V45.42H153.93V195.03H174.03L173.77 128.19H182.12L218.67 195.03H244.78L208.49 128.19H231.47V128.18ZM173.76 109.39V63.96H210.57V109.39H173.76Z" fill="black"/>
<path d="M127.28 428.44H64.0101V368.58H127.28V349.68H64.0101V317.13H127.28V298.23L44.0601 298.49V448.91H127.28V428.44Z" fill="black"/>
<path d="M237.02 385.12L175.33 349.41V317.92H217.86V341.28H237.55V298.49H154.33V368.32L216.54 404.28V429.22H174.28V405.86H154.33V448.91L237.02 448.65V385.12Z" fill="black"/>
<path d="M341.72 430.01H281.6V317.92H343.37L343.81 298.49H260.6V448.91H341.72V430.01Z" fill="black"/>
<path d="M527.05 276.65L543.85 276.75L543.45 39.82L502.64 0H0V241.81L11.92 253H0V494.81L32.51 526.79H543.85L543.45 292.83L527.05 276.66V276.65ZM502.64 474.81V280.68L523.46 301.21L523.79 496.55L502.64 475.4V474.82V474.81ZM523.46 48.2L523.79 243.54L502.64 222.39V27.67L523.46 48.2ZM493.77 241.81L508.51 256.55H506.64L503.33 253.28L502.63 253.99V253.01H40.07L28.99 241.82H493.77V241.81ZM20 20H482.64V221.81H20V20ZM32.51 273.79L482.64 276.4V474.81H20V273H31.73L32.51 273.79ZM28.98 494.81H493.76L508.5 509.55L40.89 506.84L28.98 494.81Z" fill="black"/>
<path d="M307.61 363.92V383.92H415.96L392.06 407.83L406.2 421.97L449.04 379.13V370.63L406.2 327.8L392.06 341.94L414.04 363.92H307.61Z" fill="black"/>
</g>
<defs>
<clipPath id="clip0_114_477">
<rect width="543.84" height="526.79" fill="white"/>
</clipPath>
</defs>
</svg>
